<svg width="1em" height="1em" viewBox="0 0 16 16" class="wifi-failed" fill="currentColor" xmlns="http://www.w3.org/2000/svg">
  <path d="M15.385 6.115a.485.485 0 0 0-.048-.736A12.443 12.443 0 0 0 8 3 12.44 12.44 0 0 0 .663 5.379a.485.485 0 0 0-.048.736.518.518 0 0 0 .668.05A11.448 11.448 0 0 1 8 4c2.507 0 4.827.802 6.717 2.164.204.148.489.13.668-.049z"/>

  <g transform="scale(0.7 0.7) translate(3.5 4)">
    <path d="M7.002 11a1 1 0 1 1 2 0 1 1 0 0 1-2 0zM7.1 4.995a.905.905 0 1 1 1.8 0l-.35 3.507a.552.552 0 0 1-1.1 0L7.1 4.995z" />
  </g>
</svg>