<svg width="1em" height="1em" viewBox="0 0 16 16" class="wifi-2" fill="currentColor" xmlns="http://www.w3.org/2000/svg">
  <path d="M11.046 10.454c.226-.226.185-.605-.1-.75A6.472 6.472 0 0 0 8 9c-1.06 0-2.062.254-2.946.704-.285.145-.326.524-.1.75l.015.015c.16.16.408.19.611.09A5.478 5.478 0 0 1 8 10c.868 0 1.69.201 2.42.56.203.1.45.07.611-.091l.015-.015z"/>
  <path d="M9.06 12.44c.196-.196.198-.52-.04-.66A1.99 1.99 0 0 0 8 11.5a1.99 1.99 0 0 0-1.02.28c-.238.14-.236.464-.04.66l.706.706a.5.5 0 0 0 .708 0l.707-.707z"/>
</svg>