<svg width="1em" height="1em" viewBox="0 0 16 16" class="wifi-connected" fill="currentColor" xmlns="http://www.w3.org/2000/svg">
  <path d="M15.385 6.115a.485.485 0 0 0-.048-.736A12.443 12.443 0 0 0 8 3 12.44 12.44 0 0 0 .663 5.379a.485.485 0 0 0-.048.736.518.518 0 0 0 .668.05A11.448 11.448 0 0 1 8 4c2.507 0 4.827.802 6.717 2.164.204.148.489.13.668-.049z"/>
  <path d="M9.06 12.44c.196-.196.198-.52-.04-.66A1.99 1.99 0 0 0 8 11.5a1.99 1.99 0 0 0-1.02.28c-.238.14-.236.464-.04.66l.706.706a.5.5 0 0 0 .708 0l.707-.707z"/>

  <g transform="scale(0.7 0.7) translate(3.5 3)">
    <path d="M10.97 4.97a.75.75 0 0 1 1.071 1.05l-3.992 4.99a.75.75 0 0 1-1.08.02L4.324 8.384a.75.75 0 1 1 1.06-1.06l2.094 2.093 3.473-4.425a.236.236 0 0 1 .02-.022z"/>
  </g>
</svg>