<svg width="1em" height="1em" viewBox="0 0 16 16" class="wifi-connecting" fill="currentColor" xmlns="http://www.w3.org/2000/svg">
  <path d="M15.385 6.115a.485.485 0 0 0-.048-.736A12.443 12.443 0 0 0 8 3 12.44 12.44 0 0 0 .663 5.379a.485.485 0 0 0-.048.736.518.518 0 0 0 .668.05A11.448 11.448 0 0 1 8 4c2.507 0 4.827.802 6.717 2.164.204.148.489.13.668-.049z"/>
  <path d="M9.06 12.44c.196-.196.198-.52-.04-.66A1.99 1.99 0 0 0 8 11.5a1.99 1.99 0 0 0-1.02.28c-.238.14-.236.464-.04.66l.706.706a.5.5 0 0 0 .708 0l.707-.707z"/>

  <g transform="scale(0.7 0.7) translate(3.5 3)">
      <path d="M6.354 5.5H4a3 3 0 0 0 0 6h3a3 3 0 0 0 2.83-4H9c-.086 0-.17.01-.25.031A2 2 0 0 1 7 10.5H4a2 2 0 1 1 0-4h1.535c.218-.376.495-.714.82-1z"/>
      <path d="M9 5.5a3 3 0 0 0-2.83 4h1.098A2 2 0 0 1 9 6.5h3a2 2 0 1 1 0 4h-1.535a4.02 4.02 0 0 1-.82 1H12a3 3 0 1 0 0-6H9z"/>  
  </g>
</svg>