<svg width="1em" height="1em" viewBox="0 0 16 16" class="battery-50" fill="currentColor" xmlns="http://www.w3.org/2000/svg">
  <path d="M2 4.5a1.5 1.5 0 0 0-1.5 1.5v4a1.5 1.5 0 0 0 1.5 1.5h10a1.5 1.5 0 0 0 1.5-1.5v-4a1.5 1.5 0 0 0-1.5-1.5h-10z" fill="none" stroke="currentColor"/>
  
  <path d="M2 6h1.75v4h-1.75v-4z"/>
  <path d="M4.75 6h1.75v4h-1.75v-4z"/>
  <!-- <path d="M7.5 6h1.75v4h-1.75v-4z"/> -->
  <!-- <path d="M10.25 6h1.75v4h-1.75v-4z"/> -->

  <path d="M14.5 9.5a1.5 1.5 0 0 0 0-3v3z"/>
</svg>